<mxfile host="app.diagrams.net" modified="2024-03-13T08:28:59.451Z" agent="Mozilla/5.0 (Macintosh; Intel Mac OS X 10_15_7) AppleWebKit/537.36 (KHTML, like Gecko) Chrome/122.0.0.0 Safari/537.36" version="24.0.5" etag="C_2Pi5A4ZT-cLNXP-ZyH" type="github">
  <diagram name="第 1 页" id="Jam8xNho5npcZTjq4bq5">
    <mxGraphModel>
      <root>
        <mxCell id="0" />
        <mxCell id="1" parent="0" />
      </root>
    </mxGraphModel>
  </diagram>
</mxfile>
